<svg id="visual" viewBox="0 0 900 600" width="900" height="600" xmlns="http://www.w3.org/2000/svg" xmlns:xlink="http://www.w3.org/1999/xlink" version="1.1"><g stroke-width="1" stroke-linejoin="bevel"><path d="M472 277L499 210L404 196Z" fill="#00101c" stroke="#00101c"></path><path d="M404 196L401 315L472 277Z" fill="#15384f" stroke="#15384f"></path><path d="M639 224L535 132L499 210Z" fill="#112e42" stroke="#112e42"></path><path d="M499 210L535 132L404 196Z" fill="#246688" stroke="#246688"></path><path d="M535 132L371 123L404 196Z" fill="#00101c" stroke="#00101c"></path><path d="M404 196L316 299L401 315Z" fill="#15384f" stroke="#15384f"></path><path d="M592 391L574 283L472 277Z" fill="#19435d" stroke="#19435d"></path><path d="M472 277L574 283L499 210Z" fill="#112e42" stroke="#112e42"></path><path d="M316 299L407 362L401 315Z" fill="#0c2435" stroke="#0c2435"></path><path d="M401 315L407 362L472 277Z" fill="#081a28" stroke="#081a28"></path><path d="M292 163L316 299L404 196Z" fill="#15384f" stroke="#15384f"></path><path d="M371 123L292 163L404 196Z" fill="#19435d" stroke="#19435d"></path><path d="M574 283L639 224L499 210Z" fill="#205a7a" stroke="#205a7a"></path><path d="M436 0L300 95L371 123Z" fill="#205a7a" stroke="#205a7a"></path><path d="M371 123L300 95L292 163Z" fill="#205a7a" stroke="#205a7a"></path><path d="M363 475L462 436L407 362Z" fill="#00101c" stroke="#00101c"></path><path d="M407 362L462 436L472 277Z" fill="#081a28" stroke="#081a28"></path><path d="M574 283L710 307L639 224Z" fill="#205a7a" stroke="#205a7a"></path><path d="M667 90L577 60L535 132Z" fill="#15384f" stroke="#15384f"></path><path d="M535 132L436 0L371 123Z" fill="#19435d" stroke="#19435d"></path><path d="M462 436L592 391L472 277Z" fill="#00101c" stroke="#00101c"></path><path d="M523 0L436 0L535 132Z" fill="#297ea6" stroke="#297ea6"></path><path d="M577 60L523 0L535 132Z" fill="#081a28" stroke="#081a28"></path><path d="M234 73L211 176L292 163Z" fill="#081a28" stroke="#081a28"></path><path d="M292 163L211 176L316 299Z" fill="#0c2435" stroke="#0c2435"></path><path d="M211 176L229 336L316 299Z" fill="#0c2435" stroke="#0c2435"></path><path d="M316 299L271 407L407 362Z" fill="#081a28" stroke="#081a28"></path><path d="M229 336L271 407L316 299Z" fill="#0c2435" stroke="#0c2435"></path><path d="M710 307L701 224L639 224Z" fill="#1d4e6b" stroke="#1d4e6b"></path><path d="M639 224L667 90L535 132Z" fill="#1d4e6b" stroke="#1d4e6b"></path><path d="M701 224L667 90L639 224Z" fill="#00101c" stroke="#00101c"></path><path d="M577 60L606 0L523 0Z" fill="#1d4e6b" stroke="#1d4e6b"></path><path d="M271 407L363 475L407 362Z" fill="#00101c" stroke="#00101c"></path><path d="M462 436L500 513L592 391Z" fill="#277297" stroke="#277297"></path><path d="M300 95L234 73L292 163Z" fill="#15384f" stroke="#15384f"></path><path d="M267 0L234 73L300 95Z" fill="#1d4e6b" stroke="#1d4e6b"></path><path d="M592 391L710 307L574 283Z" fill="#19435d" stroke="#19435d"></path><path d="M667 90L606 0L577 60Z" fill="#081a28" stroke="#081a28"></path><path d="M80 264L206 383L229 336Z" fill="#081a28" stroke="#081a28"></path><path d="M229 336L206 383L271 407Z" fill="#0c2435" stroke="#0c2435"></path><path d="M271 407L270 523L363 475Z" fill="#0c2435" stroke="#0c2435"></path><path d="M363 475L500 513L462 436Z" fill="#00101c" stroke="#00101c"></path><path d="M592 391L692 387L710 307Z" fill="#19435d" stroke="#19435d"></path><path d="M436 0L267 0L300 95Z" fill="#19435d" stroke="#19435d"></path><path d="M638 483L692 387L592 391Z" fill="#246688" stroke="#246688"></path><path d="M500 513L638 483L592 391Z" fill="#00101c" stroke="#00101c"></path><path d="M189 537L270 523L271 407Z" fill="#15384f" stroke="#15384f"></path><path d="M363 475L414 600L500 513Z" fill="#081a28" stroke="#081a28"></path><path d="M267 0L187 0L234 73Z" fill="#1d4e6b" stroke="#1d4e6b"></path><path d="M81 111L99 164L211 176Z" fill="#277297" stroke="#277297"></path><path d="M211 176L80 264L229 336Z" fill="#0c2435" stroke="#0c2435"></path><path d="M81 111L211 176L234 73Z" fill="#081a28" stroke="#081a28"></path><path d="M206 383L189 537L271 407Z" fill="#081a28" stroke="#081a28"></path><path d="M701 224L788 122L667 90Z" fill="#19435d" stroke="#19435d"></path><path d="M667 90L737 0L606 0Z" fill="#297ea6" stroke="#297ea6"></path><path d="M819 181L788 122L701 224Z" fill="#297ea6" stroke="#297ea6"></path><path d="M816 279L701 224L710 307Z" fill="#1d4e6b" stroke="#1d4e6b"></path><path d="M638 483L715 478L692 387Z" fill="#1d4e6b" stroke="#1d4e6b"></path><path d="M766 425L816 279L710 307Z" fill="#205a7a" stroke="#205a7a"></path><path d="M689 600L715 478L638 483Z" fill="#15384f" stroke="#15384f"></path><path d="M788 122L737 0L667 90Z" fill="#277297" stroke="#277297"></path><path d="M99 164L80 264L211 176Z" fill="#277297" stroke="#277297"></path><path d="M766 425L710 307L692 387Z" fill="#205a7a" stroke="#205a7a"></path><path d="M331 600L414 600L363 475Z" fill="#1d4e6b" stroke="#1d4e6b"></path><path d="M500 513L579 600L638 483Z" fill="#15384f" stroke="#15384f"></path><path d="M715 478L766 425L692 387Z" fill="#112e42" stroke="#112e42"></path><path d="M816 279L819 181L701 224Z" fill="#205a7a" stroke="#205a7a"></path><path d="M788 122L820 0L737 0Z" fill="#246688" stroke="#246688"></path><path d="M414 600L535 600L500 513Z" fill="#15384f" stroke="#15384f"></path><path d="M187 0L81 111L234 73Z" fill="#112e42" stroke="#112e42"></path><path d="M99 164L0 185L80 264Z" fill="#15384f" stroke="#15384f"></path><path d="M270 523L331 600L363 475Z" fill="#081a28" stroke="#081a28"></path><path d="M535 600L579 600L500 513Z" fill="#112e42" stroke="#112e42"></path><path d="M69 410L189 537L206 383Z" fill="#1d4e6b" stroke="#1d4e6b"></path><path d="M270 523L166 600L331 600Z" fill="#00101c" stroke="#00101c"></path><path d="M0 294L69 410L80 264Z" fill="#297ea6" stroke="#297ea6"></path><path d="M80 264L69 410L206 383Z" fill="#112e42" stroke="#112e42"></path><path d="M799 600L800 483L715 478Z" fill="#112e42" stroke="#112e42"></path><path d="M715 478L800 483L766 425Z" fill="#15384f" stroke="#15384f"></path><path d="M766 425L900 313L816 279Z" fill="#246688" stroke="#246688"></path><path d="M900 77L820 0L788 122Z" fill="#246688" stroke="#246688"></path><path d="M187 0L71 0L81 111Z" fill="#0c2435" stroke="#0c2435"></path><path d="M81 111L0 185L99 164Z" fill="#0c2435" stroke="#0c2435"></path><path d="M579 600L689 600L638 483Z" fill="#00101c" stroke="#00101c"></path><path d="M0 105L0 185L81 111Z" fill="#19435d" stroke="#19435d"></path><path d="M0 185L0 294L80 264Z" fill="#297ea6" stroke="#297ea6"></path><path d="M816 279L900 190L819 181Z" fill="#246688" stroke="#246688"></path><path d="M819 181L900 77L788 122Z" fill="#112e42" stroke="#112e42"></path><path d="M900 313L900 190L816 279Z" fill="#297ea6" stroke="#297ea6"></path><path d="M900 420L900 313L766 425Z" fill="#297ea6" stroke="#297ea6"></path><path d="M71 0L0 105L81 111Z" fill="#205a7a" stroke="#205a7a"></path><path d="M90 600L166 600L189 537Z" fill="#246688" stroke="#246688"></path><path d="M189 537L166 600L270 523Z" fill="#112e42" stroke="#112e42"></path><path d="M67 533L189 537L69 410Z" fill="#277297" stroke="#277297"></path><path d="M900 190L900 77L819 181Z" fill="#19435d" stroke="#19435d"></path><path d="M0 294L0 419L69 410Z" fill="#297ea6" stroke="#297ea6"></path><path d="M0 491L67 533L69 410Z" fill="#19435d" stroke="#19435d"></path><path d="M900 507L900 420L800 483Z" fill="#19435d" stroke="#19435d"></path><path d="M800 483L900 420L766 425Z" fill="#246688" stroke="#246688"></path><path d="M71 0L0 0L0 105Z" fill="#277297" stroke="#277297"></path><path d="M900 77L900 0L820 0Z" fill="#081a28" stroke="#081a28"></path><path d="M689 600L799 600L715 478Z" fill="#246688" stroke="#246688"></path><path d="M0 600L90 600L67 533Z" fill="#15384f" stroke="#15384f"></path><path d="M67 533L90 600L189 537Z" fill="#19435d" stroke="#19435d"></path><path d="M0 419L0 491L69 410Z" fill="#246688" stroke="#246688"></path><path d="M799 600L900 507L800 483Z" fill="#277297" stroke="#277297"></path><path d="M0 491L0 600L67 533Z" fill="#081a28" stroke="#081a28"></path><path d="M799 600L900 600L900 507Z" fill="#081a28" stroke="#081a28"></path></g></svg>